<?xml version="1.0" standalone="no"?><!DOCTYPE svg PUBLIC "-//W3C//DTD SVG 1.1//EN" "http://www.w3.org/Graphics/SVG/1.1/DTD/svg11.dtd"><svg t="1602566880126" class="icon" viewBox="0 0 1024 1024" version="1.1" xmlns="http://www.w3.org/2000/svg" p-id="1189" xmlns:xlink="http://www.w3.org/1999/xlink"><defs><style type="text/css"></style></defs><path d="M914.285714 420.571429l0 109.714286q0 22.820571-16.018286 38.838857t-38.838857 16.018286l-237.714286 0 0 237.714286q0 22.820571-16.018286 38.838857t-38.838857 16.018286l-109.714286 0q-22.820571 0-38.838857-16.018286t-16.018286-38.838857l0-237.714286-237.714286 0q-22.820571 0-38.838857-16.018286t-16.018286-38.838857l0-109.714286q0-22.820571 16.018286-38.838857t38.838857-16.018286l237.714286 0 0-237.714286q0-22.820571 16.018286-38.838857t38.838857-16.018286l109.714286 0q22.820571 0 38.838857 16.018286t16.018286 38.838857l0 237.714286 237.714286 0q22.820571 0 38.838857 16.018286t16.018286 38.838857z" p-id="1190"></path></svg>